<svg fill="none" height="24" viewBox="0 0 24 24" width="24" xmlns="http://www.w3.org/2000/svg"><g fill="lightgrey"><path clip-rule="evenodd" d="m17.5 2.75c.4142 0 .75.33579.75.75v2.25h2.25c.4142 0 .75.33579.75.75s-.3358.75-.75.75h-2.25v2.25c0 .41421-.3358.75-.75.75s-.75-.33579-.75-.75v-2.25h-2.25c-.4142 0-.75-.33579-.75-.75s.3358-.75.75-.75h2.25v-2.25c0-.41421.3358-.75.75-.75z" fill-rule="evenodd"/><path d="m2 6.5c0-2.12132 0-3.18198.65901-3.84099s1.71967-.65901 3.84099-.65901 3.18198 0 3.841.65901c.659.65901.659 1.71967.659 3.84099s0 3.18198-.659 3.841c-.65902.659-1.71968.659-3.841.659s-3.18198 0-3.84099-.659c-.65901-.65902-.65901-1.71968-.65901-3.841z"/><path d="m13 17.5c0-2.1213 0-3.182.659-3.841s1.7197-.659 3.841-.659 3.182 0 3.841.659.659 1.7197.659 3.841 0 3.182-.659 3.841-1.7197.659-3.841.659-3.182 0-3.841-.659-.659-1.7197-.659-3.841z"/><path d="m2 17.5c0-2.1213 0-3.182.65901-3.841s1.71967-.659 3.84099-.659 3.18198 0 3.841.659c.659.659.659 1.7197.659 3.841s0 3.182-.659 3.841c-.65902.659-1.71968.659-3.841.659s-3.18198 0-3.84099-.659-.65901-1.7197-.65901-3.841z"/></g></svg>
