<svg xmlns="http://www.w3.org/2000/svg" width="67" height="59" viewBox="0 0 66.39 58.01"><title>Electric Theatre Collective</title><path d="M33.15,0,0,58H66.39Zm-7.4,51c0,.23,0,.25-.25.25H18.93c-.3,0-.31,0-.31-.3V34.94a1.34,1.34,0,0,0,0-.2c0-.12.05-.17.18-.17h6.79c.11,0,.16,0,.16.15v2c0,.18-.11.17-.23.17H21.4c-.19,0-.24,0-.24.24v4.31c0,.22.05.26.28.26h3c.35,0,.35,0,.35.34v1.7c0,.25,0,.25-.25.25h-3.2a.17.17,0,0,0-.18.19v4.54c0,.27,0,.31.31.31h4.1c.16,0,.18.07.18.2ZM37,36.86H34.6a.16.16,0,0,0-.16.17V51c0,.29,0,.3-.3.3H32.26c-.33,0-.33,0-.33-.33V37.28c0-.43,0-.43-.42-.43H29.4c-.24,0-.25,0-.25-.23V34.77c0-.15.05-.2.2-.2h7.72c.12,0,.16,0,.16.15v2C37.24,36.83,37.15,36.86,37,36.86Zm10.86,13a3,3,0,0,1-1.63,1.33,3.86,3.86,0,0,1-1.4.25,5.55,5.55,0,0,1-1.52-.13,3.18,3.18,0,0,1-2.16-1.69,5,5,0,0,1-.4-1.31,3.29,3.29,0,0,1,0-.77V38.25a4.34,4.34,0,0,1,.65-2.4,2.94,2.94,0,0,1,1.43-1.17,3.82,3.82,0,0,1,1.57-.3c.25,0,.5,0,.76,0a3.46,3.46,0,0,1,2.51,1.22A3.57,3.57,0,0,1,48.29,37a11.59,11.59,0,0,1,.21,2.94.15.15,0,0,1-.17.17H46.26c-.14,0-.17-.08-.17-.21,0-.58,0-1.16,0-1.75a1.67,1.67,0,0,0-.41-1.1,1.19,1.19,0,0,0-.87-.38,1.69,1.69,0,0,0-.77.1,1.29,1.29,0,0,0-.69.74,2.16,2.16,0,0,0-.11.84v4.59h0c0,1.64,0,3.28,0,4.92A1.25,1.25,0,0,0,43.93,49a1.56,1.56,0,0,0,1.2.1,1.12,1.12,0,0,0,.72-.53,1.83,1.83,0,0,0,.24-.92c0-.76,0-1.52,0-2.28,0-.27,0-.27.27-.27h1.91c.21,0,.23,0,.23.23,0,.71,0,1.42,0,2.13A5,5,0,0,1,47.87,49.9Z" fill="#fff"></path></svg>